<svg width="63" height="63" viewBox="0 0 63 63" fill="none" xmlns="http://www.w3.org/2000/svg">
<g clip-path="url(#clip0_241_386)">
<path d="M54.0894 48.9405C53.0218 48.9413 51.978 48.6254 51.0899 48.0329C50.2019 47.4403 49.5095 46.5977 49.1004 45.6116C48.6913 44.6255 48.5839 43.5402 48.7917 42.493C48.9995 41.4458 49.5132 40.4838 50.2678 39.7286C51.0225 38.9734 51.9841 38.459 53.0311 38.2505C54.0782 38.0419 55.1635 38.1486 56.1499 38.5569C57.1363 38.9653 57.9794 39.657 58.5726 40.5447C59.1658 41.4323 59.4825 42.4759 59.4825 43.5435C59.4818 44.974 58.9135 46.3457 57.9024 47.3576C56.8912 48.3695 55.5199 48.9388 54.0894 48.9405ZM54.0894 40.1152C53.4112 40.1145 52.748 40.3149 52.1837 40.6911C51.6194 41.0673 51.1794 41.6025 50.9193 42.2288C50.6592 42.8552 50.5908 43.5446 50.7226 44.2099C50.8545 44.8752 51.1807 45.4864 51.6599 45.9662C52.1392 46.4461 52.7501 46.773 53.4152 46.9056C54.0803 47.0382 54.7698 46.9705 55.3965 46.7112C56.0232 46.4518 56.5588 46.0124 56.9357 45.4485C57.3126 44.8847 57.5137 44.2217 57.5137 43.5435C57.5134 42.635 57.1526 41.7639 56.5106 41.1211C55.8686 40.4784 54.9979 40.1166 54.0894 40.1152Z" fill="white"/>
<path d="M25.6488 48.9405C24.5812 48.9415 23.5372 48.6259 22.649 48.0335C21.7608 47.4411 21.0682 46.5985 20.6589 45.6125C20.2496 44.6264 20.142 43.5411 20.3496 42.4938C20.5573 41.4465 21.0709 40.4844 21.8255 39.7291C22.58 38.9738 23.5417 38.4592 24.5887 38.2506C25.6358 38.0419 26.7212 38.1485 27.7077 38.5568C28.6942 38.9651 29.5374 39.6569 30.1307 40.5445C30.7239 41.4322 31.0406 42.4758 31.0406 43.5435C31.0395 44.9736 30.4713 46.345 29.4605 47.3567C28.4498 48.3685 27.079 48.938 25.6488 48.9405ZM25.6488 40.1152C24.9706 40.1142 24.3072 40.3144 23.7428 40.6904C23.1783 41.0665 22.7381 41.6016 22.4778 42.2279C22.2175 42.8542 22.1489 43.5437 22.2806 44.2091C22.4123 44.8744 22.7383 45.4858 23.2176 45.9658C23.6968 46.4457 24.3077 46.7728 24.9728 46.9055C25.638 47.0382 26.3276 46.9706 26.9543 46.7113C27.581 46.452 28.1168 46.0125 28.4937 45.4487C28.8706 44.8848 29.0718 44.2217 29.0718 43.5435C29.0711 42.6354 28.7104 41.7646 28.0688 41.122C27.4272 40.4793 26.5569 40.1173 25.6488 40.1152Z" fill="white"/>
<path d="M61.19 44.5279H58.4981C58.237 44.5279 57.9866 44.4242 57.802 44.2396C57.6174 44.055 57.5137 43.8046 57.5137 43.5435C57.5137 43.2825 57.6174 43.0321 57.802 42.8475C57.9866 42.6629 58.237 42.5592 58.4981 42.5592H60.9118V37.3393C60.9111 36.6336 60.7304 35.9397 60.3868 35.3234L55.058 25.7697C55.0125 25.6881 54.9461 25.6202 54.8655 25.5729C54.785 25.5256 54.6933 25.5007 54.6 25.5006H47.3379V42.5631H49.682C49.9431 42.5631 50.1935 42.6668 50.3781 42.8514C50.5627 43.036 50.6664 43.2864 50.6664 43.5475C50.6664 43.8085 50.5627 44.0589 50.3781 44.2435C50.1935 44.4281 49.9431 44.5318 49.682 44.5318H46.3535C46.0924 44.5318 45.8421 44.4281 45.6575 44.2435C45.4729 44.0589 45.3691 43.8085 45.3691 43.5475V24.5162C45.3691 24.2552 45.4729 24.0048 45.6575 23.8202C45.8421 23.6356 46.0924 23.5319 46.3535 23.5319H54.6C55.0441 23.5316 55.4802 23.65 55.8632 23.8748C56.2462 24.0995 56.5623 24.4225 56.7787 24.8102L62.1062 34.3652C62.6126 35.2747 62.8787 36.2984 62.8792 37.3393V42.8387C62.8785 43.2865 62.7003 43.7158 62.3837 44.0324C62.0671 44.349 61.6378 44.5272 61.19 44.5279Z" fill="white"/>
<path d="M21.2402 44.5279H11.802C11.5409 44.5279 11.2906 44.4242 11.1059 44.2396C10.9213 44.055 10.8176 43.8046 10.8176 43.5435V35.973C10.8176 35.712 10.9213 35.4616 11.1059 35.277C11.2906 35.0924 11.5409 34.9886 11.802 34.9886C12.0631 34.9886 12.3135 35.0924 12.4981 35.277C12.6827 35.4616 12.7864 35.712 12.7864 35.973V42.5592H21.2402C21.5013 42.5592 21.7516 42.6629 21.9362 42.8475C22.1209 43.0321 22.2246 43.2825 22.2246 43.5435C22.2246 43.8046 22.1209 44.055 21.9362 44.2396C21.7516 44.4242 21.5013 44.5279 21.2402 44.5279Z" fill="white"/>
<path d="M11.802 32.4805C11.5409 32.4805 11.2906 32.3768 11.1059 32.1921C10.9213 32.0075 10.8176 31.7572 10.8176 31.4961V24.8864C10.8176 24.6253 10.9213 24.3749 11.1059 24.1903C11.2906 24.0057 11.5409 23.902 11.802 23.902C12.0631 23.902 12.3135 24.0057 12.4981 24.1903C12.6827 24.3749 12.7864 24.6253 12.7864 24.8864V31.5C12.7853 31.7604 12.6812 32.0098 12.4967 32.1935C12.3122 32.3773 12.0624 32.4805 11.802 32.4805Z" fill="white"/>
<path d="M46.3536 44.5278H30.0563C29.7952 44.5278 29.5448 44.4241 29.3602 44.2395C29.1756 44.0549 29.0719 43.8045 29.0719 43.5434C29.0719 43.2824 29.1756 43.032 29.3602 42.8474C29.5448 42.6628 29.7952 42.5591 30.0563 42.5591H45.3692V16.8065H12.7864V20.8608C12.7864 21.1219 12.6827 21.3723 12.4981 21.5569C12.3135 21.7415 12.0631 21.8452 11.802 21.8452C11.5409 21.8452 11.2906 21.7415 11.1059 21.5569C10.9213 21.3723 10.8176 21.1219 10.8176 20.8608V16.6254C10.8183 16.1513 11.0071 15.6968 11.3424 15.3617C11.6778 15.0265 12.1324 14.8381 12.6066 14.8378H45.5503C46.0242 14.8385 46.4785 15.027 46.8136 15.3621C47.1487 15.6972 47.3373 16.1515 47.338 16.6254V43.5434C47.338 43.8045 47.2342 44.0549 47.0496 44.2395C46.865 44.4241 46.6147 44.5278 46.3536 44.5278Z" fill="white"/>
<path d="M15.6936 36.9574H3.19995C2.93888 36.9574 2.6885 36.8537 2.50389 36.6691C2.31929 36.4845 2.21558 36.2341 2.21558 35.973C2.21558 35.712 2.31929 35.4616 2.50389 35.277C2.6885 35.0924 2.93888 34.9886 3.19995 34.9886H15.6936C15.9547 34.9886 16.2051 35.0924 16.3897 35.277C16.5743 35.4616 16.678 35.712 16.678 35.973C16.678 36.2341 16.5743 36.4845 16.3897 36.6691C16.2051 36.8537 15.9547 36.9574 15.6936 36.9574Z" fill="white"/>
<path d="M25.6488 32.4805H8.21484C7.95377 32.4805 7.70339 32.3767 7.51879 32.1921C7.33418 32.0075 7.23047 31.7572 7.23047 31.4961C7.23047 31.235 7.33418 30.9846 7.51879 30.8C7.70339 30.6154 7.95377 30.5117 8.21484 30.5117H25.6488C25.9098 30.5117 26.1602 30.6154 26.3448 30.8C26.5294 30.9846 26.6331 31.235 26.6331 31.4961C26.6331 31.7572 26.5294 32.0075 26.3448 32.1921C26.1602 32.3767 25.9098 32.4805 25.6488 32.4805Z" fill="white"/>
<path d="M7.67293 27.283H0.86499C0.603918 27.283 0.353538 27.1792 0.168932 26.9946C-0.0156742 26.81 -0.119385 26.5597 -0.119385 26.2986C-0.119385 26.0375 -0.0156742 25.7871 0.168932 25.6025C0.353538 25.4179 0.603918 25.3142 0.86499 25.3142H7.67293C7.934 25.3142 8.18438 25.4179 8.36898 25.6025C8.55359 25.7871 8.6573 26.0375 8.6573 26.2986C8.6573 26.5597 8.55359 26.81 8.36898 26.9946C8.18438 27.1792 7.934 27.283 7.67293 27.283Z" fill="white"/>
<path d="M18.589 21.8452H6.57178C6.31071 21.8452 6.06033 21.7415 5.87572 21.5569C5.69111 21.3723 5.5874 21.1219 5.5874 20.8608C5.5874 20.5998 5.69111 20.3494 5.87572 20.1648C6.06033 19.9802 6.31071 19.8765 6.57178 19.8765H18.589C18.8501 19.8765 19.1005 19.9802 19.2851 20.1648C19.4697 20.3494 19.5734 20.5998 19.5734 20.8608C19.5734 21.1219 19.4697 21.3723 19.2851 21.5569C19.1005 21.7415 18.8501 21.8452 18.589 21.8452Z" fill="white"/>
</g>
<defs>
<clipPath id="clip0_241_386">
<rect width="63" height="63" fill="white"/>
</clipPath>
</defs>
</svg>
