<svg width="46" height="46" viewBox="0 0 46 46" fill="none" xmlns="http://www.w3.org/2000/svg">
<g clip-path="url(#clip0_241_431)">
<path d="M31.6251 19.1667H14.3751C13.8461 19.1667 13.4167 18.7373 13.4167 18.2083V0.958333C13.4167 0.429333 13.8461 0 14.3751 0H31.6251C32.1541 0 32.5834 0.429333 32.5834 0.958333V18.2083C32.5834 18.7373 32.1541 19.1667 31.6251 19.1667ZM15.3334 17.25H30.6667V1.91667H15.3334V17.25Z" fill="white"/>
<path d="M25.8751 7.66667H20.1251C19.5961 7.66667 19.1667 7.23733 19.1667 6.70833V0.958333C19.1667 0.429333 19.5961 0 20.1251 0H25.8751C26.4041 0 26.8334 0.429333 26.8334 0.958333V6.70833C26.8334 7.23733 26.4041 7.66667 25.8751 7.66667ZM21.0834 5.75H24.9168V1.91667H21.0834V5.75Z" fill="white"/>
<path d="M22.9999 36.4167H4.79159C4.26259 36.4167 3.83325 35.9873 3.83325 35.4583V18.2083C3.83325 17.6793 4.26259 17.25 4.79159 17.25H22.9999C23.5289 17.25 23.9583 17.6793 23.9583 18.2083V35.4583C23.9583 35.9873 23.5289 36.4167 22.9999 36.4167ZM5.74992 34.5H22.0416V19.1667H5.74992V34.5Z" fill="white"/>
<path d="M16.2916 24.9167H10.5416C10.0126 24.9167 9.58325 24.4873 9.58325 23.9583V18.2083C9.58325 17.6793 10.0126 17.25 10.5416 17.25H16.2916C16.8206 17.25 17.2499 17.6793 17.2499 18.2083V23.9583C17.2499 24.4873 16.8206 24.9167 16.2916 24.9167ZM11.4999 23H15.3333V19.1667H11.4999V23Z" fill="white"/>
<path d="M41.2084 36.4167H23.0001C22.4711 36.4167 22.0417 35.9873 22.0417 35.4583V18.2083C22.0417 17.6793 22.4711 17.25 23.0001 17.25H41.2084C41.7374 17.25 42.1668 17.6793 42.1668 18.2083V35.4583C42.1668 35.9873 41.7374 36.4167 41.2084 36.4167ZM23.9584 34.5H40.2501V19.1667H23.9584V34.5Z" fill="white"/>
<path d="M35.4583 24.9167H29.7083C29.1793 24.9167 28.75 24.4873 28.75 23.9583V18.2083C28.75 17.6793 29.1793 17.25 29.7083 17.25H35.4583C35.9873 17.25 36.4167 17.6793 36.4167 18.2083V23.9583C36.4167 24.4873 35.9873 24.9167 35.4583 24.9167ZM30.6667 23H34.5V19.1667H30.6667V23Z" fill="white"/>
<path d="M45.0417 46H37.375C36.846 46 36.4167 45.5707 36.4167 45.0417V42.1667H28.75V45.0417C28.75 45.5707 28.3207 46 27.7917 46H18.2083C17.6793 46 17.25 45.5707 17.25 45.0417V42.1667H9.58333V45.0417C9.58333 45.5707 9.154 46 8.625 46H0.958333C0.429333 46 0 45.5707 0 45.0417V35.4583C0 34.9293 0.429333 34.5 0.958333 34.5H45.0417C45.5707 34.5 46 34.9293 46 35.4583V45.0417C46 45.5707 45.5707 46 45.0417 46ZM38.3333 44.0833H44.0833V36.4167H1.91667V44.0833H7.66667V41.2083C7.66667 40.6793 8.096 40.25 8.625 40.25H18.2083C18.7373 40.25 19.1667 40.6793 19.1667 41.2083V44.0833H26.8333V41.2083C26.8333 40.6793 27.2627 40.25 27.7917 40.25H37.375C37.904 40.25 38.3333 40.6793 38.3333 41.2083V44.0833Z" fill="white"/>
</g>
<defs>
<clipPath id="clip0_241_431">
<rect width="46" height="46" fill="white"/>
</clipPath>
</defs>
</svg>
