<svg width="50" height="50" viewBox="0 0 50 50" fill="none" xmlns="http://www.w3.org/2000/svg">
<g clip-path="url(#clip0_241_362)">
<path d="M36.3228 21.6446V12.1822C36.3228 11.9114 36.1977 11.6611 36.0207 11.4632L25.412 0.323105C25.214 0.114822 24.9325 0 24.6513 0H7.83157C4.72641 0 2.24609 2.5322 2.24609 5.63774V37.4428C2.24609 40.5483 4.72641 43.0389 7.83157 43.0389H21.1082C23.6195 47.2073 28.1841 50 33.3839 50C41.283 50 47.7337 43.5806 47.7337 35.6712C47.7444 28.7621 42.7837 22.9889 36.3228 21.6446ZM25.6935 3.65791L32.811 11.1504H28.1944C26.8188 11.1504 25.6935 10.0147 25.6935 8.63915V3.65791ZM7.83157 40.9546C5.88303 40.9546 4.33044 39.3913 4.33044 37.4428V5.63774C4.33044 3.67851 5.88303 2.08435 7.83157 2.08435H23.6092V8.63915C23.6092 11.1713 25.6622 13.2347 28.1944 13.2347H34.2384V21.3734C33.926 21.3631 33.6758 21.3318 33.4049 21.3318C29.768 21.3318 26.4229 22.7284 23.901 24.9168H10.6663C10.0929 24.9168 9.6241 25.3857 9.6241 25.9586C9.6241 26.532 10.0929 27.0008 10.6663 27.0008H21.9627C21.2227 28.043 20.6078 29.0852 20.1286 30.2315H10.6663C10.0929 30.2315 9.6241 30.7003 9.6241 31.2737C9.6241 31.8466 10.0929 32.3158 10.6663 32.3158H19.4511C19.1906 33.358 19.0552 34.5146 19.0552 35.6712C19.0552 37.5469 19.4199 39.402 20.0764 40.9653H7.83157V40.9546ZM33.3946 47.9263C26.6418 47.9263 21.1498 42.4343 21.1498 35.6815C21.1498 28.9288 26.6312 23.4367 33.3946 23.4367C40.1577 23.4367 45.639 28.9288 45.639 35.6815C45.639 42.4343 40.1474 47.9263 33.3946 47.9263Z" fill="white"/>
<path d="M10.6662 21.78H21.2226C21.796 21.78 22.2648 21.3108 22.2648 20.7379C22.2648 20.1645 21.796 19.6957 21.2226 19.6957H10.6662C10.0928 19.6957 9.62402 20.1645 9.62402 20.7379C9.62402 21.3108 10.0928 21.78 10.6662 21.78Z" fill="white"/>
<path d="M39.0636 30.992L31.1851 38.2033L27.3295 34.014C26.9439 33.5868 26.2767 33.5662 25.8601 33.9515C25.4329 34.3371 25.4119 35.0043 25.7976 35.4209L30.3618 40.3708C30.5701 40.5898 30.8517 40.7046 31.1332 40.7046C31.383 40.7046 31.6333 40.6108 31.8416 40.4334L40.4807 32.5137C40.908 32.1281 40.9393 31.4609 40.5433 31.0443C40.1473 30.6274 39.4908 30.5961 39.0636 30.992Z" fill="white"/>
</g>
<defs>
<clipPath id="clip0_241_362">
<rect width="50" height="50" fill="white"/>
</clipPath>
</defs>
</svg>
