<svg width="22" height="22" viewBox="0 0 22 22" fill="none" xmlns="http://www.w3.org/2000/svg">
<g clip-path="url(#clip0_241_218)">
<path d="M19.6429 2.35714H17.2857V0.785729C17.2857 0.351776 16.9339 0 16.5 0C16.066 0 15.7143 0.351776 15.7143 0.785729V2.35714H6.28569V0.785729C6.28569 0.351776 5.93392 0 5.50001 0C5.0661 0 4.71428 0.351776 4.71428 0.785729V2.35714H2.35714C1.05533 2.35714 0 3.41247 0 4.71428V19.6429C0 20.9447 1.05533 22 2.35714 22H19.6429C20.9447 22 22 20.9447 22 19.6429V4.71428C22 3.41247 20.9447 2.35714 19.6429 2.35714ZM20.4285 19.6429C20.4285 20.0768 20.0768 20.4286 19.6428 20.4286H2.35714C1.92319 20.4286 1.57141 20.0768 1.57141 19.6429V9.42857H20.4285V19.6429ZM20.4285 7.85715H1.57141V4.71428C1.57141 4.28033 1.92319 3.92855 2.35714 3.92855H4.71428V5.49997C4.71428 5.93392 5.06606 6.28569 5.50001 6.28569C5.93396 6.28569 6.28574 5.93392 6.28574 5.49997V3.92855H15.7143V5.49997C15.7143 5.93392 16.0661 6.28569 16.5 6.28569C16.934 6.28569 17.2858 5.93392 17.2858 5.49997V3.92855H19.6429C20.0769 3.92855 20.4286 4.28033 20.4286 4.71428V7.85715H20.4285Z" fill="#89C249"/>
<path d="M6.28561 11H4.7142C4.28024 11 3.92847 11.3518 3.92847 11.7857C3.92847 12.2197 4.28024 12.5715 4.7142 12.5715H6.28561C6.71956 12.5715 7.07134 12.2197 7.07134 11.7857C7.07134 11.3518 6.71956 11 6.28561 11Z" fill="#89C249"/>
<path d="M11.7856 11H10.2142C9.78024 11 9.42847 11.3518 9.42847 11.7857C9.42847 12.2197 9.78024 12.5715 10.2142 12.5715H11.7856C12.2196 12.5715 12.5713 12.2197 12.5713 11.7857C12.5713 11.3518 12.2196 11 11.7856 11Z" fill="#89C249"/>
<path d="M17.2856 11H15.7142C15.2802 11 14.9285 11.3518 14.9285 11.7857C14.9285 12.2197 15.2802 12.5715 15.7142 12.5715H17.2856C17.7196 12.5715 18.0713 12.2197 18.0713 11.7857C18.0713 11.3518 17.7195 11 17.2856 11Z" fill="#89C249"/>
<path d="M6.28561 14.1428H4.7142C4.28024 14.1428 3.92847 14.4946 3.92847 14.9286C3.92847 15.3625 4.28024 15.7143 4.7142 15.7143H6.28561C6.71956 15.7143 7.07134 15.3625 7.07134 14.9286C7.07134 14.4946 6.71956 14.1428 6.28561 14.1428Z" fill="#89C249"/>
<path d="M11.7856 14.1428H10.2142C9.78024 14.1428 9.42847 14.4946 9.42847 14.9286C9.42847 15.3625 9.78024 15.7143 10.2142 15.7143H11.7856C12.2196 15.7143 12.5713 15.3625 12.5713 14.9286C12.5713 14.4946 12.2196 14.1428 11.7856 14.1428Z" fill="#89C249"/>
<path d="M17.2856 14.1428H15.7142C15.2802 14.1428 14.9285 14.4946 14.9285 14.9286C14.9285 15.3625 15.2802 15.7143 15.7142 15.7143H17.2856C17.7196 15.7143 18.0713 15.3625 18.0713 14.9286C18.0713 14.4946 17.7195 14.1428 17.2856 14.1428Z" fill="#89C249"/>
<path d="M6.28561 17.2856H4.7142C4.28024 17.2856 3.92847 17.6374 3.92847 18.0714C3.92847 18.5053 4.28024 18.8571 4.7142 18.8571H6.28561C6.71956 18.8571 7.07134 18.5053 7.07134 18.0713C7.07134 17.6374 6.71956 17.2856 6.28561 17.2856Z" fill="#89C249"/>
<path d="M11.7856 17.2856H10.2142C9.78024 17.2856 9.42847 17.6374 9.42847 18.0714C9.42847 18.5053 9.78024 18.8571 10.2142 18.8571H11.7856C12.2196 18.8571 12.5713 18.5053 12.5713 18.0714C12.5713 17.6374 12.2196 17.2856 11.7856 17.2856Z" fill="#89C249"/>
<path d="M17.2856 17.2856H15.7142C15.2802 17.2856 14.9285 17.6374 14.9285 18.0714C14.9285 18.5053 15.2802 18.8571 15.7142 18.8571H17.2856C17.7196 18.8571 18.0713 18.5053 18.0713 18.0714C18.0713 17.6374 17.7195 17.2856 17.2856 17.2856Z" fill="#89C249"/>
</g>
<defs>
<clipPath id="clip0_241_218">
<rect width="22" height="22" fill="white"/>
</clipPath>
</defs>
</svg>
