<svg width="34" height="33" viewBox="0 0 34 33" fill="none" xmlns="http://www.w3.org/2000/svg">
<g clip-path="url(#clip0_318_553)">
<path d="M17 33C26.3888 33 34 25.6127 34 16.5C34 7.3873 26.3888 0 17 0C7.61116 0 0 7.3873 0 16.5C0 25.6127 7.61116 33 17 33Z" fill="#039BE5"/>
<path d="M7.7788 16.1425L24.1696 10.0087C24.9304 9.74192 25.5948 10.1888 25.3483 11.3053L25.3497 11.3039L22.5589 24.0653C22.3521 24.97 21.7981 25.19 21.0232 24.7638L16.7732 21.7237L14.7233 23.6404C14.4966 23.8604 14.3054 24.046 13.8662 24.046L14.168 19.8482L22.0446 12.9415C22.3875 12.6487 21.9681 12.4837 21.5162 12.7752L11.7823 18.7234L7.58613 17.4529C6.67522 17.1724 6.65538 16.5688 7.7788 16.1425V16.1425Z" fill="white"/>
</g>
<defs>
<clipPath id="clip0_318_553">
<rect width="34" height="33" fill="white"/>
</clipPath>
</defs>
</svg>
