<svg width="33" height="33" viewBox="0 0 33 33" fill="none" xmlns="http://www.w3.org/2000/svg">
<g clip-path="url(#clip0_318_548)">
<path d="M16.5 33C25.6127 33 33 25.6127 33 16.5C33 7.3873 25.6127 0 16.5 0C7.3873 0 0 7.3873 0 16.5C0 25.6127 7.3873 33 16.5 33Z" fill="#4065D6"/>
<path d="M24.1095 21.2154C23.723 21.2697 21.8451 21.2154 21.7474 21.2154C21.2618 21.2203 20.7939 21.0339 20.4447 20.6965C20.0474 20.3144 19.6892 19.8932 19.3093 19.4959C19.1939 19.3748 19.0699 19.2623 18.938 19.1594C18.6276 18.9228 18.3214 18.977 18.176 19.3418C18.0621 19.7371 17.9836 20.1418 17.9415 20.551C17.9347 20.7234 17.8598 20.8861 17.7332 21.0033C17.6067 21.1206 17.4387 21.1828 17.2663 21.1763C17.0101 21.1893 16.7539 21.1958 16.4999 21.1893C15.5759 21.1845 14.6661 20.9614 13.8447 20.538C12.958 20.0425 12.1851 19.3665 11.576 18.5537C10.6014 17.2667 9.75907 15.8847 9.06191 14.4287C9.025 14.3549 8.29335 12.7982 8.27599 12.7266C8.23063 12.6246 8.22629 12.509 8.26389 12.4039C8.30149 12.2988 8.37813 12.2122 8.47789 12.1621C8.60816 12.1122 11.0202 12.1621 11.0593 12.1621C11.2389 12.1604 11.4143 12.2161 11.56 12.3212C11.7057 12.4263 11.814 12.5751 11.8691 12.7461C12.3152 13.8834 12.9244 14.9497 13.6776 15.9115C13.7826 16.0411 13.9063 16.1545 14.0445 16.248C14.0801 16.2824 14.1243 16.3067 14.1724 16.3182C14.2205 16.3298 14.2709 16.3284 14.3182 16.314C14.3656 16.2996 14.4083 16.2728 14.4418 16.2364C14.4754 16.2 14.4986 16.1553 14.5091 16.1069C14.6045 15.793 14.6607 15.4685 14.6762 15.1408C14.6893 14.4895 14.6763 14.0553 14.6393 13.4039C14.6525 13.182 14.5775 12.9638 14.4308 12.7968C14.2841 12.6297 14.0774 12.5273 13.8556 12.5116C13.6645 12.4791 13.6385 12.3228 13.7709 12.1664C14.0249 11.843 14.3766 11.7908 14.7588 11.7713C15.3363 11.7387 15.9159 11.7713 16.4956 11.7713H16.6215C16.876 11.7707 17.1299 11.7961 17.3792 11.8473C17.525 11.8772 17.6572 11.9533 17.7562 12.0644C17.8552 12.1755 17.9156 12.3156 17.9285 12.4639C17.9577 12.6279 17.9708 12.7944 17.9676 12.961C17.9524 13.671 17.9176 14.3809 17.9089 15.093C17.9038 15.3743 17.9292 15.6553 17.9849 15.931C18.0696 16.3088 18.328 16.4043 18.5928 16.1286C18.9229 15.7743 19.2255 15.3955 19.4982 14.9953C19.9883 14.2667 20.392 13.4835 20.7009 12.6614C20.8681 12.2403 20.9962 12.1469 21.4499 12.1469H24.0096C24.1623 12.1444 24.3146 12.1648 24.4612 12.2077C24.5129 12.2215 24.5613 12.2458 24.6033 12.279C24.6452 12.3123 24.6799 12.3538 24.7052 12.4011C24.7304 12.4483 24.7457 12.5002 24.75 12.5536C24.7543 12.607 24.7477 12.6607 24.7304 12.7114C24.5807 13.256 24.3239 13.7653 23.9749 14.2094C23.4538 14.9454 22.9067 15.664 22.3726 16.3805C22.305 16.4742 22.2434 16.5721 22.1881 16.6735C21.9884 17.0339 22.0036 17.238 22.2923 17.542C22.7569 18.0196 23.2541 18.469 23.7013 18.9597C24.0311 19.3172 24.329 19.7029 24.5914 20.1125C24.9214 20.6422 24.7195 21.1285 24.1095 21.2154V21.2154Z" fill="white"/>
</g>
<defs>
<clipPath id="clip0_318_548">
<rect width="33" height="33" fill="white"/>
</clipPath>
</defs>
</svg>
